<?xml version="1.0" encoding="utf-8"?>
<!-- Generator: Adobe Illustrator 23.1.0, SVG Export Plug-In . SVG Version: 6.00 Build 0)  -->
<svg version="1.1" id="Layer_1" xmlns="http://www.w3.org/2000/svg" xmlns:xlink="http://www.w3.org/1999/xlink" x="0px" y="0px"
	 viewBox="0 0 510.2 510.2" style="enable-background:new 0 0 510.2 510.2;" xml:space="preserve">
<style type="text/css">
	.st0{fill:#FFFFFF;}
</style>
<g>
	<g>
		<path class="st0" d="M255.1,0C114.4,0,0,114.4,0,255.1s114.4,255.1,255.1,255.1c68.1,0,132.2-26.5,180.4-74.7
			c4.2-4.2,4.2-10.9,0-15c-4.2-4.2-10.9-4.2-15,0C376.3,464.7,317.6,489,255.1,489c-129,0-233.9-104.9-233.9-233.9
			s105-233.8,233.9-233.8S489,126.2,489,255.1v21.3c0,35.2-28.6,63.8-63.8,63.8s-63.8-28.6-63.8-63.8v-95.7
			c0-5.9-4.8-10.6-10.6-10.6c-5.9,0-10.6,4.8-10.6,10.6V192c-19.4-26-50.1-43.2-85-43.2c-58.6,0-106.3,47.7-106.3,106.3
			s47.7,106.3,106.3,106.3c39.1,0,73-21.5,91.4-53c12.7,31,43.1,53,78.7,53c46.9,0,85-38.1,85-85v-21.3C510.2,114.4,395.8,0,255.1,0
			z M255.1,340.2c-46.9,0-85-38.1-85-85s38.1-85,85-85s85,38.1,85,85S302,340.2,255.1,340.2z"/>
	</g>
</g>
</svg>
