<?xml version="1.0" encoding="utf-8"?>
<!-- Generator: Adobe Illustrator 23.1.0, SVG Export Plug-In . SVG Version: 6.00 Build 0)  -->
<svg version="1.1" id="Layer_1" xmlns="http://www.w3.org/2000/svg" xmlns:xlink="http://www.w3.org/1999/xlink" x="0px" y="0px"
	 viewBox="0 0 510.2 510.2" style="enable-background:new 0 0 510.2 510.2;" xml:space="preserve">
<style type="text/css">
	.st0{fill:#FFFFFF;}
	.st1{fill:#FFFFFF;stroke:#FFFFFF;stroke-miterlimit:10;}
</style>
<path class="st0" d="M286.9,368.1H172c-5.6,0-10.1,4.5-10.1,10.1s4.5,10.1,10.1,10.1h114.9c5.6,0,10.1-4.5,10.1-10.1
	C296.9,372.6,292.4,368.1,286.9,368.1z"/>
<path class="st0" d="M118.2,429.8c0,5.6,4.5,10.1,10.1,10.1h56.2c5.6,0,10.1-4.5,10.1-10.1s-4.5-10.1-10.1-10.1h-56.2
	C122.8,419.7,118.2,424.2,118.2,429.8z"/>
<path class="st0" d="M264.2,429.8c0,5.6,4.5,10.1,10.1,10.1h56.2c5.6,0,10.1-4.5,10.1-10.1s-4.5-10.1-10.1-10.1h-56.2
	C268.8,419.7,264.2,424.2,264.2,429.8z"/>
<path class="st0" d="M229.3,419.7c-5.6,0-10.1,4.5-10.1,10.1s4.5,10.1,10.1,10.1h0.2c5.6,0,10.1-4.5,10.1-10.1s-4.5-10.1-10.1-10.1
	H229.3z"/>
<path class="st0" d="M24.9,165.7c5.6,0,10.1-4.5,10.1-10.1v-0.2c0-5.6-4.5-10.1-10.1-10.1s-10.1,4.5-10.1,10.1v0.2
	C14.9,161.1,19.4,165.7,24.9,165.7z"/>
<path class="st1" d="M484.2,395.9l-45.4-45.1V96.7c0-0.3,0-0.6,0-1c0-0.1,0-0.3-0.1-0.4c0-0.2,0-0.4-0.1-0.5c0-0.2-0.1-0.3-0.1-0.5
	c0-0.1-0.1-0.3-0.1-0.4c0-0.2-0.1-0.3-0.2-0.5c0-0.1-0.1-0.3-0.1-0.4c-0.1-0.2-0.1-0.3-0.2-0.5c-0.1-0.1-0.1-0.3-0.2-0.4
	s-0.2-0.3-0.2-0.4c-0.1-0.1-0.2-0.3-0.2-0.4c-0.1-0.1-0.2-0.3-0.3-0.4c-0.1-0.1-0.2-0.3-0.3-0.4c-0.1-0.1-0.2-0.2-0.3-0.3
	c0,0,0-0.1-0.1-0.1L361.2,3.5c-0.1-0.1-0.1-0.1-0.2-0.2c-0.1-0.2-0.3-0.3-0.4-0.5c-0.1-0.1-0.2-0.2-0.3-0.3
	c-0.2-0.1-0.3-0.3-0.5-0.4c-0.1-0.1-0.2-0.2-0.3-0.3c-0.2-0.1-0.3-0.2-0.5-0.4c-0.1-0.1-0.2-0.1-0.3-0.2c-0.2-0.1-0.4-0.2-0.6-0.3
	c-0.1,0-0.2-0.1-0.3-0.1c-0.2-0.1-0.5-0.2-0.7-0.3c-0.1,0-0.2-0.1-0.3-0.1c-0.3-0.1-0.5-0.1-0.8-0.2c-0.1,0-0.2,0-0.2-0.1
	C355.5,0,355.2,0,355,0c-0.1,0-0.1,0-0.2,0c-0.4,0-0.7-0.1-1.1-0.1H59.3C34.4,0,14.2,20.1,14.2,44.9V111c0,5.5,4.5,10,10.1,10
	s10.1-4.5,10.1-10V44.9c0-13.7,11.2-24.8,25-24.8h284.1v64.7c0,12.1,9.9,22,22.1,22h53v224l-22.2-22c-0.1-0.1-0.1-0.1-0.2-0.2
	s-0.1-0.1-0.2-0.2l-47.6-47.3c9.7-18.5,15.3-39.5,15.3-61.8c0-73.6-60.3-133.6-134.4-133.6c-74.1,0-134.3,60-134.3,133.6
	c0,35.2,13.7,67.2,36.1,91c0.5,0.6,1,1.2,1.6,1.7c24.5,25.2,58.7,40.9,96.7,40.9c22.4,0,43.5-5.5,62.1-15.2l47.6,47.3
	c0.1,0.1,0.1,0.1,0.2,0.2s0.1,0.1,0.2,0.2l79.2,78.7v21.2c0,13.7-11.2,24.8-25,24.8H59.3c-13.8,0-25-11.1-25-24.8V200.5
	c0-5.5-4.5-10-10.1-10s-10.1,4.5-10.1,10v264.9c0,24.8,20.3,44.9,45.2,44.9h334.3c24.9,0,45.2-20.1,45.2-44.9v-4.2
	c5.5,2.8,11.1,4.1,16.6,4.1c10.7,0,20.7-4.9,27.9-12C497.5,439.1,502.6,414.2,484.2,395.9L484.2,395.9z M363.6,84.8V37l43,49.6
	h-41.1C364.5,86.7,363.6,85.8,363.6,84.8z M229.4,85.8c63,0,114.2,50.9,114.2,113.5c0,20.7-5.6,40.2-15.4,56.9
	c-0.7,0.8-1.3,1.8-1.7,2.7c-2,3.2-4.1,6.3-6.4,9.2c-12-22.1-31.6-38.9-54.7-47.8c13.7-10.9,22.5-27.7,22.5-46.5
	c0-32.9-26.9-59.6-60-59.6s-60,26.7-60,59.6c0,18.7,8.8,35.5,22.4,46.4c-8,3-15.6,7-22.7,12c-12.7,8.9-23.1,20.2-30.7,33.4
	c-13.7-18.7-21.7-41.7-21.7-66.5C115.1,136.7,166.4,85.8,229.4,85.8L229.4,85.8z M188,174c0-21.8,17.9-39.6,39.8-39.6
	s39.8,17.7,39.8,39.6c0,21.8-17.8,39.5-39.8,39.5C205.9,213.5,188,195.8,188,174L188,174z M151.2,281.9
	c13.8-29.2,43.9-48.4,76.6-48.4c33.7,0,64.1,20,77.5,50.4c-4.9,4.4-10.3,8.4-15.9,11.8c-1,0.4-1.9,1-2.8,1.7
	c-16.8,9.7-36.4,15.3-57.2,15.3C199.1,312.8,171.6,301.1,151.2,281.9L151.2,281.9z M323.4,294.6c0.7-0.5,1.3-1.1,1.8-1.8
	c4.4-4.5,8.5-9.2,12.2-14.3l37.4,37.1l-28.4,28.3L309,306.8C314.1,303.1,318.9,299,323.4,294.6L323.4,294.6z M469,439.1
	c-6.5,6.5-17.1,9.7-27.5-0.7l-80.8-80.3l28.4-28.3l32.3,32.1c0.1,0.1,0.3,0.3,0.4,0.4l48.1,47.8C480.2,420.4,475,433.1,469,439.1
	L469,439.1z"/>
</svg>
