<?xml version="1.0" encoding="utf-8"?>
<!-- Generator: Adobe Illustrator 23.1.0, SVG Export Plug-In . SVG Version: 6.00 Build 0)  -->
<svg version="1.1" id="Layer_1" xmlns="http://www.w3.org/2000/svg" xmlns:xlink="http://www.w3.org/1999/xlink" x="0px" y="0px"
	 viewBox="0 0 510.2 510.2" style="enable-background:new 0 0 510.2 510.2;" xml:space="preserve">
<style type="text/css">
	.st0{fill:none;stroke:#000000;stroke-width:20;stroke-linecap:round;stroke-linejoin:round;stroke-miterlimit:10;}
	.st1{fill:none;stroke:#FFFFFF;stroke-width:20;stroke-linecap:round;stroke-linejoin:round;stroke-miterlimit:10;}
</style>
<path class="st0" d="M255.2,475.4"/>
<path class="st1" d="M260.3,498.9C414.2,490.1,522,370.7,494.6,212C472.2,82.8,348.3-3.8,223,13.5C96,31.1-1.7,151.4,12.8,282.3
	c13.7,117.9,84.6,172.9,143.8,197.9c13.8,5.8,32.3,14.2,38.5,12.9c6.2-1.3,4.2-36.8,4.2-53.9c-38.5,6-51.7-9.4-59.9-18.6
	c-9.3-10.4-14.7-21.1-24.2-36.8c-9.5-15.7-26.6-12-28.4-21.1s36.1-6.7,63.3,27.7c19.7,25,40.7,17.5,52,10.3c0.4-4,1.3-9.3,3.5-15.2
	c2.3-6.3,8.7-10.1,7.7-14.4s-52.5-1.4-81.9-43.5c-21.2-30.4-22-66.4-13.6-93.2c5.6-18,14.9-30.6,21.3-38c-2.4-5.3-6-15-6.2-27.7
	c-0.2-13.7,3.7-24.2,6.2-29.6c8.4,0.3,20.6,1.5,34.3,6.5c13.2,4.8,23.1,11.2,29.7,16.2c12-4.1,29.4-8.6,50.7-9
	c24.4-0.5,44.2,4.5,57,8.8c6.3-5.7,16.8-13.9,31.7-19.5c10.8-4.1,20.5-5.5,27.7-5.9c2.8,5.3,7.4,16.1,7.6,30.4
	c0.2,13.2-3.4,23.3-5.8,28.8c6.9,8.5,17.8,24.4,22.9,46.8c1.8,8,11.7,51.7-16.8,89.2c-29.9,39.3-79.7,33.3-81.9,38.8
	c-2.2,5.5,9.5,15.6,15.1,36.6c5.5,21.2,3.2,61.5,3.2,61.5"/>
</svg>
